<?xml version="1.0" encoding="utf-8"?>
<!-- Generator: Adobe Illustrator 26.0.0, SVG Export Plug-In . SVG Version: 6.00 Build 0)  -->
<svg version="1.1" id="Layer_1" xmlns="http://www.w3.org/2000/svg" xmlns:xlink="http://www.w3.org/1999/xlink" x="0px" y="0px"
	 viewBox="0 0 1024 1024" style="enable-background:new 0 0 1024 1024;" xml:space="preserve">
<path d="M146,997.5L146,997.5c-27.89,0-50.5-22.61-50.5-50.5v-96c0-27.89,22.61-50.5,50.5-50.5h0c27.89,0,50.5,22.61,50.5,50.5v96
	C196.5,974.89,173.89,997.5,146,997.5z"/>
<path d="M267,997.5L267,997.5c-27.89,0-50.5-22.61-50.5-50.5V74.5c0-27.89,22.61-50.5,50.5-50.5h0c27.89,0,50.5,22.61,50.5,50.5V947
	C317.5,974.89,294.89,997.5,267,997.5z"/>
<path d="M389,997.5L389,997.5c-27.89,0-50.5-22.61-50.5-50.5V450c0-27.89,22.61-50.5,50.5-50.5h0c27.89,0,50.5,22.61,50.5,50.5v497
	C439.5,974.89,416.89,997.5,389,997.5z"/>
<path d="M509,997.5L509,997.5c-27.89,0-50.5-22.61-50.5-50.5V650c0-27.89,22.61-50.5,50.5-50.5h0c27.89,0,50.5,22.61,50.5,50.5v297
	C559.5,974.89,536.89,997.5,509,997.5z"/>
<path d="M629,997.5L629,997.5c-27.89,0-50.5-22.61-50.5-50.5v-96c0-27.89,22.61-50.5,50.5-50.5h0c27.89,0,50.5,22.61,50.5,50.5v96
	C679.5,974.89,656.89,997.5,629,997.5z"/>
<path d="M749,997.5L749,997.5c-27.89,0-50.5-22.61-50.5-50.5v-96c0-27.89,22.61-50.5,50.5-50.5h0c27.89,0,50.5,22.61,50.5,50.5v96
	C799.5,974.89,776.89,997.5,749,997.5z"/>
<path d="M869,997.5L869,997.5c-27.89,0-50.5-22.61-50.5-50.5v-97.5c0-27.89,22.61-50.5,50.5-50.5h0c27.89,0,50.5,22.61,50.5,50.5
	V947C919.5,974.89,896.89,997.5,869,997.5z"/>
</svg>
