<?xml version="1.0" encoding="utf-8"?>
<!-- Generator: Adobe Illustrator 26.0.0, SVG Export Plug-In . SVG Version: 6.00 Build 0)  -->
<svg version="1.1" id="Layer_1" xmlns="http://www.w3.org/2000/svg" xmlns:xlink="http://www.w3.org/1999/xlink" x="0px" y="0px"
	 viewBox="0 0 1024 1024" style="enable-background:new 0 0 1024 1024;" xml:space="preserve">
<path d="M62,980.5L62,980.5c-27.61,0-50-22.39-50-50V830c0-27.61,22.39-50,50-50h0c27.61,0,50,22.39,50,50v100.5
	C112,958.11,89.61,980.5,62,980.5z"/>
<path d="M210.5,980.5L210.5,980.5c-27.61,0-50-22.39-50-50v-844c0-27.61,22.39-50,50-50h0c27.61,0,50,22.39,50,50v844
	C260.5,958.11,238.11,980.5,210.5,980.5z"/>
<path d="M362.5,980.5L362.5,980.5c-27.61,0-50-22.39-50-50V431c0-27.61,22.39-50,50-50h0c27.61,0,50,22.39,50,50v499.5
	C412.5,958.11,390.11,980.5,362.5,980.5z"/>
<path d="M514.5,980.5L514.5,980.5c-27.61,0-50-22.39-50-50V630c0-27.61,22.39-50,50-50h0c27.61,0,50,22.39,50,50v300.5
	C564.5,958.11,542.11,980.5,514.5,980.5z"/>
<path d="M662.5,976.5L662.5,976.5c-27.61,0-50-22.39-50-50V830c0-27.61,22.39-50,50-50h0c27.61,0,50,22.39,50,50v96.5
	C712.5,954.11,690.11,976.5,662.5,976.5z"/>
<path d="M810.5,980.5L810.5,980.5c-27.61,0-50-22.39-50-50V830c0-27.61,22.39-50,50-50h0c27.61,0,50,22.39,50,50v100.5
	C860.5,958.11,838.11,980.5,810.5,980.5z"/>
<path d="M961.5,980.5L961.5,980.5c-27.61,0-50-22.39-50-50V830c0-27.61,22.39-50,50-50h0c27.61,0,50,22.39,50,50v100.5
	C1011.5,958.11,989.11,980.5,961.5,980.5z"/>
</svg>
